<?xml version="1.0" standalone="no"?>
<!DOCTYPE svg PUBLIC "-//W3C//DTD SVG 20010904//EN"
 "http://www.w3.org/TR/2001/REC-SVG-20010904/DTD/svg10.dtd">
<svg version="1.0" xmlns="http://www.w3.org/2000/svg"
 width="1024.000000pt" height="1024.000000pt" viewBox="0 0 1024.000000 1024.000000"
 preserveAspectRatio="xMidYMid meet">

<g transform="translate(0.000000,1024.000000) scale(0.100000,-0.100000)"
fill="#3C452D" stroke="none">
<path d="M2004 6970 c-28 -4 -69 -13 -90 -20 -113 -37 -117 -40 -883 -803
-473 -473 -757 -764 -782 -801 -107 -163 -107 -379 0 -542 25 -38 308 -328
782 -800 716 -714 747 -743 819 -778 192 -92 399 -61 554 85 169 157 205 411
89 611 -16 27 -157 177 -325 346 -164 165 -298 302 -298 306 0 3 1467 6 3260
6 1793 0 3260 -3 3260 -8 0 -4 -124 -131 -276 -282 -152 -151 -296 -301 -319
-332 -63 -84 -90 -170 -90 -288 0 -117 27 -203 90 -288 77 -105 180 -171 309
-199 118 -25 263 3 361 71 67 45 1508 1487 1551 1551 58 86 78 156 77 270 0
111 -20 182 -73 264 -16 25 -370 386 -787 802 -731 729 -760 757 -828 787
-269 121 -582 -11 -677 -285 -18 -55 -23 -88 -22 -168 1 -111 21 -183 74 -264
16 -25 160 -176 320 -336 159 -159 290 -293 290 -297 0 -5 -1467 -8 -3260 -8
-1793 0 -3260 3 -3260 8 0 4 135 141 299 304 230 230 305 311 329 355 108 205
73 443 -87 597 -112 106 -264 157 -407 136z"/>
</g>
</svg>
