<?xml version="1.0" standalone="no"?>
<!DOCTYPE svg PUBLIC "-//W3C//DTD SVG 20010904//EN"
 "http://www.w3.org/TR/2001/REC-SVG-20010904/DTD/svg10.dtd">
<svg version="1.0" xmlns="http://www.w3.org/2000/svg"
 width="800.000000pt" height="800.000000pt" viewBox="0 0 800.000000 800.000000"
 preserveAspectRatio="xMidYMid meet">

<g transform="translate(0.000000,800.000000) scale(0.100000,-0.100000)"
fill="#3C452D" stroke="none">
<path d="M739 7936 c-2 -2 -29 -7 -59 -10 -79 -10 -211 -52 -250 -81 -19 -14
-40 -25 -47 -25 -16 0 -143 -122 -143 -138 0 -7 -4 -12 -9 -12 -5 0 -19 -16
-31 -35 -12 -20 -27 -41 -33 -48 -20 -21 -73 -141 -85 -192 -3 -16 -6 -83 -6
-148 1 -117 1 -117 43 -201 37 -77 49 -91 124 -149 115 -90 218 -144 252 -131
21 8 5 42 -24 52 -36 13 -135 127 -154 177 -27 73 -39 133 -34 172 15 114 50
186 137 285 33 37 54 51 98 63 32 10 63 22 71 28 9 8 53 12 116 11 142 -1 233
-30 321 -102 36 -29 69 -63 74 -75 6 -12 20 -35 32 -50 20 -24 24 -43 26 -122
3 -80 0 -104 -20 -156 -12 -33 -32 -71 -44 -82 -11 -12 -41 -53 -66 -92 -25
-38 -64 -90 -87 -115 -23 -25 -41 -49 -41 -53 0 -4 -9 -18 -21 -30 -22 -24
-136 -212 -158 -262 -7 -16 -17 -37 -22 -45 -42 -73 -70 -197 -76 -335 -3 -83
0 -119 22 -210 40 -171 65 -247 91 -278 13 -16 24 -33 24 -39 0 -19 122 -158
163 -186 41 -28 96 -58 147 -80 74 -33 246 -61 288 -48 24 8 20 31 -6 40 -9 3
-24 10 -32 15 -8 5 -46 24 -84 43 -141 68 -253 226 -286 404 -18 98 -10 307
13 353 9 19 17 42 17 52 0 21 108 201 147 244 15 17 48 56 74 88 26 31 80 90
120 129 40 40 89 98 109 129 19 31 48 75 63 98 94 141 125 251 122 433 -1 68
-4 132 -7 143 -4 11 -9 34 -13 50 -4 17 -28 70 -54 119 -57 112 -164 225 -263
279 -74 41 -215 90 -305 106 -59 11 -228 23 -234 17z"/>
<path d="M4196 7829 c-125 -13 -236 -41 -394 -100 -301 -113 -493 -233 -711
-444 -319 -309 -574 -758 -772 -1357 -45 -136 -128 -429 -144 -505 -7 -36 -69
-97 -119 -118 -18 -8 -68 -16 -112 -20 -127 -9 -188 -37 -270 -127 -58 -63
-78 -120 -72 -210 7 -106 40 -159 133 -213 130 -77 364 -19 522 129 80 74 101
110 156 266 173 488 390 944 615 1289 171 264 294 407 532 615 56 49 170 121
325 204 137 74 242 102 379 102 156 -1 263 -36 430 -144 174 -112 283 -231
370 -404 59 -117 79 -220 79 -399 l0 -151 33 -6 c81 -16 187 76 243 211 52
124 64 185 58 303 -4 89 -10 119 -39 195 -71 181 -152 323 -285 497 -149 194
-376 338 -598 378 -87 15 -257 20 -359 9z"/>
<path d="M1750 6869 c-1 -2 -2 -33 -3 -69 -1 -45 -9 -80 -26 -115 -34 -68
-149 -181 -246 -239 -156 -94 -302 -223 -366 -324 -55 -86 -71 -164 -67 -315
3 -125 5 -135 35 -193 69 -132 153 -209 283 -257 67 -25 200 -45 199 -30 0 4
-19 22 -42 38 -37 27 -73 68 -158 179 -16 22 -37 64 -45 94 -25 84 -15 146 39
255 37 76 67 116 159 216 62 68 132 149 156 180 24 31 51 65 60 76 30 34 69
108 87 164 23 72 17 195 -15 268 -18 43 -49 86 -50 72z"/>
<path d="M4692 6766 c-111 -31 -224 -90 -292 -153 -95 -88 -94 -83 -140 -548
-22 -225 -42 -424 -45 -442 -5 -29 -10 -32 -53 -39 -70 -10 -411 -104 -487
-133 -39 -16 -171 -75 -251 -113 -290 -137 -708 -514 -946 -854 -80 -115 -135
-215 -238 -433 -141 -299 -225 -575 -261 -866 -16 -129 -17 -463 -1 -585 65
-495 243 -923 549 -1321 43 -56 83 -109 88 -118 6 -10 17 -25 25 -34 8 -9 31
-35 50 -57 19 -23 63 -69 98 -103 35 -34 96 -95 135 -136 40 -40 106 -98 148
-127 42 -30 82 -61 89 -69 7 -8 16 -15 20 -15 10 0 103 -58 232 -145 114 -77
296 -175 325 -175 10 0 23 -4 28 -8 6 -4 35 -16 65 -26 30 -10 64 -21 75 -26
27 -11 152 -54 196 -68 19 -7 49 -12 65 -12 17 0 35 -5 42 -12 7 -7 12 -9 12
-6 0 3 28 -1 63 -9 90 -20 264 -41 399 -48 65 -3 130 -10 144 -15 19 -8 37 -7
62 1 21 7 57 9 92 5 41 -5 81 -1 141 13 128 29 217 44 234 37 16 -6 110 15
142 32 10 6 41 13 68 17 84 12 155 33 201 60 23 14 52 25 63 25 11 0 56 16
100 35 43 19 93 35 109 35 16 0 35 6 41 14 7 8 67 45 134 82 126 69 229 138
261 173 11 12 23 21 29 21 5 0 35 21 67 48 32 26 71 57 88 69 41 32 332 319
332 328 0 4 24 36 53 71 95 114 112 138 212 294 235 366 366 706 426 1101 27
181 30 513 6 684 -53 378 -185 744 -376 1045 -33 52 -76 122 -96 156 -19 33
-44 69 -55 79 -11 10 -30 35 -42 54 -43 70 -156 208 -250 305 -26 27 -48 53
-48 58 0 4 -6 8 -14 8 -7 0 -26 16 -40 35 -15 19 -52 51 -82 70 -30 19 -57 41
-60 49 -5 13 -118 106 -129 106 -3 0 -25 15 -49 34 -25 19 -83 57 -130 86 -47
28 -88 55 -91 60 -3 5 3 96 14 202 11 106 34 327 51 491 l31 297 -21 35 c-42
68 -187 184 -290 232 -64 29 -199 84 -224 90 -11 3 -47 7 -78 10 -56 5 -57 5
-78 -28 -17 -27 -20 -45 -17 -90 3 -31 10 -65 16 -76 7 -13 47 -34 113 -58
160 -58 325 -167 344 -228 19 -60 -88 -136 -228 -163 -150 -29 -191 -32 -375
-33 -191 -1 -392 19 -447 44 -17 7 -44 16 -61 18 -85 14 -167 42 -256 88 -106
54 -199 132 -199 166 0 62 123 147 255 178 93 22 111 32 130 70 18 39 20 114
4 149 -20 42 -90 46 -217 12z m-865 -2169 c114 -42 191 -133 220 -257 9 -35 9
-165 1 -230 -16 -139 -133 -412 -213 -498 -14 -15 -25 -31 -25 -35 0 -11 -196
-206 -225 -225 -122 -79 -161 -102 -170 -102 -5 0 -22 -6 -36 -14 -25 -13 -66
-26 -104 -33 -11 -2 -44 -8 -73 -13 -161 -29 -349 91 -389 249 -10 43 -13 246
-3 282 5 19 11 45 14 59 19 105 141 358 211 436 5 6 28 33 50 60 46 57 80 90
137 136 22 18 46 39 53 46 8 6 18 12 24 12 6 0 11 5 11 10 0 6 6 10 14 10 8 0
16 3 18 8 4 10 145 79 188 92 76 23 108 27 180 25 41 -1 94 -9 117 -18z"/>
</g>
</svg>
