<?xml version="1.0" standalone="no"?>
<!DOCTYPE svg PUBLIC "-//W3C//DTD SVG 20010904//EN"
 "http://www.w3.org/TR/2001/REC-SVG-20010904/DTD/svg10.dtd">
<svg version="1.0" xmlns="http://www.w3.org/2000/svg"
 width="800.000000pt" height="800.000000pt" viewBox="0 0 800.000000 800.000000"
 preserveAspectRatio="xMidYMid meet">

<g transform="translate(0.000000,800.000000) scale(0.100000,-0.100000)"
fill="#3C452D" stroke="none">
<path d="M3520 7786 c-85 -29 -191 -71 -235 -93 -88 -45 -255 -154 -307 -202
-18 -16 -50 -44 -72 -63 -62 -52 -222 -255 -275 -348 -84 -147 -145 -297 -171
-420 -6 -30 -18 -77 -25 -105 -27 -99 -38 -354 -21 -490 11 -93 63 -306 83
-345 7 -14 13 -30 13 -37 0 -19 67 -164 103 -224 6 -9 7 -24 4 -33 -6 -14 -40
-16 -330 -16 -359 0 -428 -7 -587 -60 -149 -50 -229 -101 -348 -222 -136 -139
-176 -207 -239 -418 -24 -81 -32 -111 -67 -260 -8 -36 -35 -144 -60 -240 -24
-96 -54 -215 -66 -265 -25 -100 -61 -244 -89 -350 -10 -38 -26 -106 -36 -150
-9 -44 -25 -108 -36 -143 -10 -35 -30 -116 -44 -180 -23 -106 -43 -184 -66
-252 -5 -14 -18 -70 -30 -125 -11 -55 -33 -147 -49 -205 -16 -58 -38 -143 -49
-190 -11 -47 -34 -139 -51 -205 -17 -66 -38 -147 -45 -180 -7 -33 -21 -87 -30
-120 -9 -33 -23 -89 -30 -125 -7 -36 -20 -85 -29 -110 -41 -121 -44 -340 -6
-493 41 -163 169 -368 304 -488 124 -109 282 -176 465 -200 129 -16 5798 -15
5866 1 125 30 227 66 305 108 102 55 133 77 219 162 87 85 151 184 202 310 36
91 43 118 51 224 13 162 4 255 -38 416 -20 74 -47 182 -61 240 -13 58 -31 130
-40 160 -9 30 -29 109 -45 175 -16 66 -36 147 -44 180 -9 33 -19 76 -24 95
-24 101 -44 182 -62 245 -11 39 -26 99 -33 135 -8 36 -21 90 -29 120 -8 30
-26 102 -40 160 -15 58 -35 139 -46 180 -11 41 -36 143 -56 225 -20 83 -45
182 -56 220 -19 67 -34 128 -59 240 -6 28 -17 70 -24 95 -8 25 -26 97 -41 160
-14 63 -39 162 -55 220 -15 58 -37 144 -48 192 -66 279 -275 529 -534 637
-165 68 -269 81 -659 81 -180 0 -299 4 -303 10 -3 5 11 44 31 87 78 166 142
357 154 462 26 227 32 322 22 368 -6 27 -13 89 -17 138 -3 50 -15 122 -26 160
-11 39 -24 87 -30 108 -22 87 -113 282 -177 382 -114 175 -286 354 -422 439
-179 111 -318 186 -405 216 -175 61 -162 60 -545 59 l-355 0 -155 -53z m650
-955 c110 -28 203 -82 287 -167 93 -94 136 -179 168 -329 17 -77 8 -182 -22
-280 -71 -229 -272 -390 -515 -415 -128 -13 -188 -2 -358 68 -37 15 -174 135
-198 174 -44 72 -85 163 -98 216 -17 72 -17 209 0 288 27 127 131 274 255 360
137 95 316 126 481 85z m1315 -2721 c216 -44 411 -146 524 -273 78 -88 104
-152 105 -262 1 -101 -12 -139 -66 -194 -49 -50 -104 -74 -173 -75 -78 -1
-119 19 -218 106 -208 183 -290 223 -457 223 -112 0 -190 -20 -275 -70 -130
-76 -224 -233 -265 -440 -13 -69 -8 -320 8 -403 34 -167 128 -324 237 -397 85
-56 152 -75 264 -75 130 0 221 25 308 83 79 52 124 105 159 183 45 101 34 114
-95 115 -96 1 -163 8 -256 28 -68 15 -135 81 -159 157 -16 50 -16 59 -2 107
19 65 68 135 98 141 152 31 387 56 527 56 140 0 325 -18 368 -36 90 -37 103
-68 118 -279 20 -272 -1 -836 -34 -910 -33 -73 -120 -135 -190 -135 -93 0
-170 63 -206 167 -23 66 -42 76 -77 40 -67 -70 -219 -155 -356 -197 -121 -39
-364 -38 -532 2 -60 14 -163 49 -175 60 -5 4 -15 8 -23 8 -22 0 -175 96 -239
149 -238 200 -372 531 -373 918 0 272 43 468 147 672 88 171 215 309 368 398
75 44 241 110 320 129 159 37 452 39 620 4z m-3055 -6 c74 -17 157 -74 193
-132 42 -67 61 -163 52 -261 -4 -47 -6 -104 -4 -126 4 -53 4 -219 -1 -273 -2
-29 2 -48 12 -58 13 -14 20 -10 61 33 25 26 56 62 68 78 13 17 55 66 94 110
95 107 302 353 394 468 41 50 91 105 113 120 66 49 178 69 249 46 51 -17 136
-84 167 -132 25 -39 27 -50 27 -142 0 -114 -7 -131 -93 -220 -27 -27 -109
-117 -184 -200 -74 -82 -160 -177 -191 -210 -32 -33 -60 -70 -63 -82 -6 -24
19 -73 79 -149 18 -23 68 -92 112 -153 44 -62 107 -149 140 -195 33 -46 77
-107 98 -137 21 -30 71 -99 112 -155 91 -126 92 -128 109 -211 34 -159 -47
-297 -202 -348 -30 -9 -67 -15 -85 -12 -67 11 -113 24 -143 40 -56 29 -146
120 -200 202 -29 44 -84 125 -122 180 -38 55 -94 136 -124 181 -30 44 -72 104
-92 132 -19 28 -56 82 -82 119 -72 106 -71 105 -108 86 -17 -9 -54 -36 -82
-60 l-51 -44 -7 -112 c-4 -62 -6 -128 -5 -147 7 -75 2 -229 -8 -311 -13 -99
-35 -149 -90 -201 -56 -53 -102 -68 -213 -70 -81 -2 -101 1 -138 20 -73 39
-126 99 -156 177 l-26 71 3 894 c3 967 1 942 56 1049 39 76 94 115 191 137 72
16 66 16 140 -2z"/>
</g>
</svg>
